<?xml version='1.0' encoding='UTF-8' standalone='no'?>
<!-- Created with Inkscape (http://www.inkscape.org/) -->
<svg xmlns="http://www.w3.org/2000/svg"  id="svg9764" version="1.1" viewBox="0 0 35 35" width="35mm" gorn="0" height="35mm">
    <desc >
        <referenceFile >boltduino_icon.svg</referenceFile>
    </desc>
    <defs  id="defs9758"/>
    <metadata  id="metadata9761">
        <rdf:RDF xmlns:rdf="http://www.w3.org/1999/02/22-rdf-syntax-ns#">
            <cc:Work rdf:about="" xmlns:rdf="http://www.w3.org/1999/02/22-rdf-syntax-ns#" xmlns:cc="http://creativecommons.org/ns#">
                <dc:format xmlns:dc="http://purl.org/dc/elements/1.1/">image/svg+xml</dc:format>
                <dc:type rdf:resource="http://purl.org/dc/dcmitype/StillImage" xmlns:dc="http://purl.org/dc/elements/1.1/" xmlns:rdf="http://www.w3.org/1999/02/22-rdf-syntax-ns#"/>
                <dc:title xmlns:dc="http://purl.org/dc/elements/1.1/"/>
            </cc:Work>
        </rdf:RDF>
    </metadata>
    <g  transform="translate(0,-262)">
        <g >
            <g >
                <g  id="layer1" gorn="0.3.0.0.0">
                    <path  fill="#000000" d="M 5.565002,296.96529 C 5.07579,296.73006 4.462746,296.0344 4.266349,295.49163 l -0.08015,-0.2215 v -2.37032 -2.37032 l 0.08077,-0.22324 c 0.164619,-0.45503 0.677615,-1.08768 1.105535,-1.36339 0.243447,-0.15686 0.5603736,-0.18906 0.7943756,-0.0807 0.3075947,0.14243 0.6584107,0.47399 0.9591787,0.90653 0.422787,0.60802 0.403709,0.45023 0.391542,3.23824 -0.01151,2.63759 0.01214,2.43029 -0.337502,2.95848 -0.236284,0.35694 -0.566095,0.70297 -0.8369257,0.87808 -0.213901,0.13831 -0.6137106,0.20089 -0.7781686,0.12181 z m 0.6124996,-1.23968 c 0.196893,-0.16775 0.4337777,-0.52157 0.4648407,-0.6943 0.01443,-0.0802 0.02565,-1.07188 0.02493,-2.20367 l -0.0013,-2.0578 -0.100608,-0.20919 c -0.110901,-0.23059 -0.4520657,-0.58467 -0.6121667,-0.63534 -0.1593786,-0.0504 -0.3721616,0.0589 -0.5724546,0.29414 -0.363897,0.4274 -0.340737,0.24625 -0.340737,2.66511 0,2.37597 -0.01288,2.25136 0.270077,2.61353 0.330117,0.42254 0.5659216,0.48439 0.8674226,0.22752 z m 14.9680434,1.20597 c -0.477163,-0.25044 -1.076417,-0.9549 -1.23177,-1.44803 -0.06396,-0.20302 -0.06727,-0.36504 -0.06801,-3.32401 -6.83e-4,-2.76154 0.0054,-3.11949 0.05423,-3.18985 0.08534,-0.12297 0.647998,-0.11293 0.727075,0.013 0.05251,0.0836 0.05793,0.36879 0.05793,3.05366 0,3.31448 -0.01661,3.0962 0.262504,3.45021 0.410925,0.5212 0.6972,0.52022 1.091686,-0.004 0.271908,-0.36114 0.25581,-0.14551 0.25581,-3.42661 0,-2.58073 0.0067,-2.95532 0.05448,-3.05366 0.04925,-0.10131 0.08394,-0.11209 0.36081,-0.11209 0.492508,0 0.442489,-0.36748 0.440483,3.23621 -0.0013,2.3905 -0.01199,3.13648 -0.04695,3.28426 -0.09287,0.39268 -0.684152,1.15372 -1.110445,1.42925 -0.260212,0.16818 -0.626371,0.20767 -0.847844,0.0914 z m 11.194456,0.0337 c -0.489212,-0.23523 -1.102255,-0.93089 -1.298653,-1.47366 l -0.08015,-0.2215 v -2.37032 -2.37032 l 0.08077,-0.22324 c 0.16462,-0.45503 0.677615,-1.08768 1.105535,-1.36339 0.243447,-0.15686 0.560375,-0.18906 0.794376,-0.0807 0.307595,0.14243 0.658411,0.47399 0.959179,0.90653 0.422787,0.60802 0.403709,0.45023 0.391542,3.23824 -0.01151,2.63759 0.01214,2.43029 -0.337501,2.95848 -0.236285,0.35694 -0.566096,0.70297 -0.836927,0.87808 -0.213901,0.13831 -0.613711,0.20089 -0.778169,0.12181 z m 0.6125,-1.23968 c 0.196894,-0.16775 0.433778,-0.52157 0.464842,-0.6943 0.01443,-0.0802 0.02565,-1.07188 0.02493,-2.20367 l -0.0013,-2.0578 -0.100608,-0.20919 c -0.110901,-0.23059 -0.452065,-0.58467 -0.612167,-0.63534 -0.159379,-0.0504 -0.372162,0.0589 -0.572455,0.29414 -0.363897,0.4274 -0.340737,0.24625 -0.340737,2.66511 0,2.37597 -0.01288,2.25136 0.270077,2.61353 0.330117,0.42254 0.565922,0.48439 0.867423,0.22752 z M 0.09472,296.78831 0,296.66182 v -3.73828 -3.73827 l 0.102307,-0.14742 0.102308,-0.14742 0.868942,5.1e-4 c 0.841292,4.5e-4 0.874511,0.004 1.043943,0.12003 0.337997,0.23089 0.700625,0.81055 0.902651,1.44288 0.08566,0.2681 0.10475,0.39428 0.10482,0.69278 7.4e-5,0.31013 -0.01704,0.4151 -0.113854,0.69847 -0.06517,0.19075 -0.209264,0.4791 -0.336639,0.67366 l -0.222698,0.34016 0.09116,0.0703 c 0.14463,0.11153 0.481095,0.67155 0.605431,1.00768 0.154063,0.4165 0.175084,0.76844 0.07211,1.20715 -0.144731,0.61657 -0.555868,1.34643 -0.913044,1.62087 -0.150606,0.11572 -0.182339,0.11947 -1.136463,0.13446 l -0.981531,0.0154 -0.09472,-0.12649 z m 1.833527,-1.05476 c 0.09504,-0.0718 0.217196,-0.2358 0.318206,-0.4272 0.273638,-0.5185 0.266865,-0.90078 -0.02547,-1.43747 -0.229864,-0.422 -0.357429,-0.48997 -0.919535,-0.48997 H 0.840002 v 1.23559 1.23559 h 0.466995 c 0.420095,0 0.482486,-0.0117 0.62125,-0.11654 z m -0.120055,-3.46812 c 0.250574,-0.17479 0.50181,-0.72756 0.50181,-1.10409 0,-0.24698 -0.102044,-0.57502 -0.263326,-0.84652 C 1.8595,289.99973 1.75184,289.94951 1.263462,289.94951 h -0.42346 v 1.21038 1.21037 h 0.408949 c 0.342578,0 0.433342,-0.017 0.559241,-0.10483 z m 6.9983813,4.44186 -0.126572,-0.20187 v -3.72403 c 0,-3.54373 0.0031,-3.72807 0.06401,-3.80749 0.08975,-0.11703 0.640464,-0.12025 0.720994,-0.004 0.04891,0.0705 0.055,0.45564 0.055,3.47983 v 3.40058 h 0.8248007 c 0.501624,0 0.851327,0.0204 0.8925,0.0522 0.05815,0.0448 0.0677,0.10834 0.0677,0.45029 0,0.29465 -0.01429,0.41867 -0.055,0.47733 -0.04773,0.0688 -0.204478,0.0793 -1.185927,0.0793 H 8.9331503 Z m 3.7434277,0.12262 c -0.04891,-0.0705 -0.055,-0.45563 -0.055,-3.47982 v -3.40058 h -0.589575 c -0.711466,0 -0.705425,0.005 -0.705425,-0.54251 0,-0.25827 0.01533,-0.38015 0.055,-0.43732 0.04842,-0.0698 0.248901,-0.0793 1.674575,-0.0793 1.883856,0 1.735425,-0.046 1.735425,0.5383 0,0.51765 0.0033,0.51523 -0.719187,0.53212 l -0.593115,0.0139 -3.6e-4,3.38427 c -2.8e-4,2.78474 -0.0088,3.39897 -0.04813,3.46722 -0.06784,0.11778 -0.672968,0.12075 -0.754203,0.004 z m 3.05213,6.4e-4 c -0.05245,-0.041 -0.111516,-0.11805 -0.13125,-0.17118 -0.02357,-0.0634 -0.03588,-1.35943 -0.03588,-3.77625 v -3.67964 l 0.126173,-0.15963 0.126173,-0.15963 0.882059,0.0157 0.882059,0.0157 0.236451,0.17305 c 0.310077,0.22693 0.670034,0.6665 0.844585,1.03139 l 0.14,0.29267 0.0098,2.4 0.0098,2.40001 -0.08943,0.26338 c -0.157966,0.46523 -0.735836,1.1668 -1.113089,1.35135 -0.23401,0.11448 -1.741737,0.11692 -1.887353,0.003 z m 1.677031,-1.07862 c 0.171996,-0.11252 0.449915,-0.46767 0.521026,-0.66582 0.07136,-0.19882 0.07358,-4.10013 0.0025,-4.34391 -0.06055,-0.20761 -0.334256,-0.57073 -0.523506,-0.69453 -0.118194,-0.0773 -0.229881,-0.0962 -0.57541,-0.0971 l -0.428749,-0.001 v 2.95029 2.95029 l 0.42875,-10e-4 c 0.345529,-9e-4 0.457217,-0.0197 0.575411,-0.0971 z m 7.138764,1.06501 c -0.05283,-0.0841 -0.05793,-0.4294 -0.05793,-3.9259 0,-3.64996 0.0031,-3.83768 0.06401,-3.91714 0.04973,-0.0648 0.135342,-0.0835 0.383769,-0.0835 0.280318,0 0.324232,0.012 0.355994,0.0976 0.05541,0.14918 0.04981,7.78058 -0.0058,7.86067 -0.02654,0.0382 -0.159795,0.0605 -0.362075,0.0605 -0.265635,0 -0.329928,-0.0157 -0.378,-0.0922 z m 2.1,0 c -0.05283,-0.0841 -0.05793,-0.4294 -0.05793,-3.9259 0,-4.43867 -0.0427,-4.00061 0.389958,-4.00061 0.240087,0 0.269635,0.0116 0.354092,0.13869 0.05068,0.0763 0.130746,0.26351 0.177924,0.41607 0.04718,0.15256 0.218525,0.67453 0.380773,1.15994 0.162247,0.48541 0.489561,1.47262 0.727363,2.1938 0.237803,0.72119 0.445311,1.3328 0.461129,1.35915 0.01582,0.0264 0.02876,-1.10419 0.02876,-2.51232 0,-1.66839 0.01262,-2.59421 0.03623,-2.65778 0.03188,-0.0858 0.07578,-0.0976 0.365516,-0.0976 0.300596,0 0.334031,0.01 0.383769,0.11209 0.04814,0.099 0.05448,0.55301 0.05448,3.89728 0,3.34427 -0.0063,3.79825 -0.05448,3.89728 -0.04808,0.0989 -0.08539,0.11208 -0.317302,0.11208 -0.144549,0 -0.294722,-0.0246 -0.333718,-0.0547 -0.06493,-0.0501 -0.202021,-0.43479 -0.85213,-2.39129 -0.223472,-0.67254 -0.581657,-1.74538 -0.799787,-2.39553 l -0.160743,-0.47911 -9.17e-4,2.57684 c -0.0011,3.01937 0.04182,2.74376 -0.427,2.74376 -0.244316,0 -0.308516,-0.0166 -0.355994,-0.0922 z m -9.59716,-12.78574 c -0.133422,-0.0872 -0.278632,-0.33182 -0.325517,-0.54835 -0.04636,-0.21412 -0.08238,-17.97676 -0.03693,-18.21393 0.01748,-0.0912 0.08964,-0.24923 0.160368,-0.35114 0.305254,-0.43984 0.786511,-0.33215 0.978864,0.21905 l 0.0792,0.22695 0.01038,9.05259 c 0.01152,10.04695 0.03171,9.19962 -0.22641,9.49874 -0.105681,0.12246 -0.171548,0.156 -0.3325,0.16928 -0.120261,0.01 -0.243496,-0.0114 -0.307448,-0.0532 z m -4.487956,-3.36721 c -0.09718,-0.0693 -0.17914,-0.17987 -0.233643,-0.31516 -0.144736,-0.35928 -0.142819,-0.49489 0.01649,-1.16661 0.249352,-1.05137 0.45164,-2.36384 0.516905,-3.35375 0.01372,-0.20803 0.02365,-0.9683 0.02207,-1.68948 -0.0024,-1.08132 -0.01629,-1.43701 -0.0794,-2.02854 -0.0887,-0.83127 -0.269084,-1.90217 -0.443343,-2.63199 -0.06704,-0.28075 -0.121883,-0.58235 -0.121883,-0.67021 0,-0.37128 0.216378,-0.73782 0.502825,-0.85179 0.250203,-0.0995 0.550314,0.12234 0.686774,0.50777 0.173407,0.48978 0.5309,2.45885 0.613669,3.38009 0.01371,0.15256 0.03083,0.32277 0.03806,0.37825 0.06544,0.50246 0.09027,2.702 0.04043,3.58069 -0.06829,1.20401 -0.270342,2.59349 -0.557356,3.83285 -0.158531,0.68456 -0.255809,0.90278 -0.462836,1.03824 -0.189232,0.12383 -0.355091,0.12064 -0.538754,-0.0104 z m 8.895628,0.0104 c -0.211587,-0.13845 -0.302187,-0.35318 -0.480622,-1.1391 -0.39821,-1.75395 -0.548648,-3.08236 -0.565418,-4.9928 -0.01178,-1.34251 0.01276,-1.86082 0.140928,-2.9755 0.1431,-1.24459 0.454408,-2.85149 0.620578,-3.20329 0.290373,-0.61476 0.901824,-0.54221 1.096782,0.13012 0.07441,0.2566 0.06208,0.39988 -0.0932,1.0838 -0.236927,1.04351 -0.405813,2.18039 -0.486565,3.27539 -0.05555,0.75332 -0.01769,2.8575 0.06535,3.63112 0.0936,0.87205 0.243583,1.75991 0.445605,2.63784 0.177291,0.77045 0.180938,0.91977 0.03058,1.25195 -0.09602,0.21212 -0.334683,0.39746 -0.509756,0.39585 -0.06611,-6.1e-4 -0.185028,-0.0435 -0.264263,-0.0954 z M 9.1700013,278.1927 c -0.111806,-0.064 -0.272138,-0.2828 -0.335625,-0.4579 -0.07115,-0.19625 -0.06115,-0.4781 0.0361,-1.01743 0.141126,-0.78266 0.202839,-1.50074 0.204252,-2.37665 0.0015,-0.92558 -0.04576,-1.51646 -0.188812,-2.36076 -0.115283,-0.68043 -0.119634,-0.76523 -0.05128,-0.99943 0.167334,-0.57336 0.661662,-0.74619 0.9805,-0.34281 0.149298,0.18888 0.2324537,0.49718 0.3473397,1.28775 0.223923,1.5409 0.230127,3.09888 0.01845,4.63427 -0.09497,0.68891 -0.1980137,1.17382 -0.2857717,1.34486 -0.145249,0.28308 -0.492855,0.42118 -0.725156,0.2881 z m 15.4874997,-0.0152 c -0.231587,-0.14957 -0.326988,-0.36364 -0.435851,-0.97801 -0.313002,-1.76644 -0.336865,-3.60438 -0.06986,-5.38057 0.161432,-1.07388 0.326851,-1.38985 0.729985,-1.39435 0.190775,-0.002 0.327459,0.0841 0.464747,0.29317 0.192292,0.29285 0.206946,0.50487 0.08191,1.18517 -0.142742,0.77664 -0.199601,1.45419 -0.200346,2.38742 -7.42e-4,0.92854 0.05195,1.56461 0.199084,2.40328 0.115211,0.6567 0.113676,0.87283 -0.0081,1.14349 -0.161932,0.35985 -0.498497,0.51029 -0.761552,0.3404 z M 5.072529,276.01489 c -0.36095,-0.14746 -0.646056,-0.50727 -0.810266,-1.02256 -0.119271,-0.37427 -0.113242,-1.00258 0.01335,-1.3917 0.410392,-1.26145 1.589222,-1.41341 2.1209396,-0.27342 0.5254017,1.12646 0.01092,2.64302 -0.9263886,2.73078 -0.137945,0.0129 -0.304787,-0.005 -0.397638,-0.0431 z m 23.514832,-0.002 c -0.265801,-0.10824 -0.537919,-0.40108 -0.692106,-0.74482 -0.244101,-0.5442 -0.268384,-1.15354 -0.0694,-1.74155 0.123472,-0.36487 0.31766,-0.63416 0.58995,-0.81813 0.166859,-0.11274 0.244488,-0.1329 0.5117,-0.1329 0.276582,0 0.338478,0.0173 0.5075,0.14209 0.255488,0.18859 0.437075,0.44775 0.571817,0.81612 0.101914,0.27862 0.110641,0.34055 0.110156,0.7817 -4.94e-4,0.44866 -0.0081,0.49939 -0.120045,0.79815 -0.211834,0.56546 -0.572392,0.90366 -1.006763,0.94433 -0.140448,0.0131 -0.305215,-0.005 -0.402805,-0.045 z" id="path9831" stroke-width="0.04201345" gorn="0.3.0.0.0.0"/>
                </g>
            </g>
        </g>
    </g>
</svg>
